{
  "accessors": [
    {
      "bufferView": 2,
      "componentType": 5126,
      "count": 718,
      "max": [
        0.965499997138977,
        2.158179998397827,
        1.7413699626922607
      ],
      "min": [
        -0.965499997138977,
        -0.0724399983882904,
        -1.404539942741394
      ],
      "type": "VEC3"
    },
    {
      "bufferView": 2,
      "byteOffset": 8616,
      "componentType": 5126,
      "count": 718,
      "max": [
        0.9921108484268188,
        0.942767322063446,
        0.9956594109535217
      ],
      "min": [
        -0.9921108484268188,
        -0.9896638989448547,
        -0.9866834878921509
      ],
      "type": "VEC3"
    },
    {
      "bufferView": 1,
      "componentType": 5126,
      "count": 718,
      "max": [
        0.8085500001907349,
        0.9999099969863892
      ],
      "min": [
        9.000000136438757e-05,
        9.000000136438757e-05
      ],
      "type": "VEC2"
    },
    {
      "bufferView": 0,
      "componentType": 5125,
      "count": 1014,
      "type": "SCALAR"
    }
  ],
  "asset": {
    "extras": {
      "author": "Rindir (https://sketchfab.com/rindir)",
      "license": "CC-BY-4.0 (http://creativecommons.org/licenses/by/4.0/)",
      "source": "https://sketchfab.com/3d-models/low-poly-head-bust-2578313d54e043da9b59b6077debc714",
      "title": "Low Poly Head Bust"
    },
    "generator": "Sketchfab-12.67.0",
    "version": "2.0"
  },
  "bufferViews": [
    {
      "buffer": 0,
      "byteLength": 4056,
      "name": "floatBufferViews",
      "target": 34963
    },
    {
      "buffer": 0,
      "byteLength": 5744,
      "byteOffset": 4056,
      "byteStride": 8,
      "name": "floatBufferViews",
      "target": 34962
    },
    {
      "buffer": 0,
      "byteLength": 17232,
      "byteOffset": 9800,
      "byteStride": 12,
      "name": "floatBufferViews",
      "target": 34962
    }
  ],
  "buffers": [
    {
      "byteLength": 27032,
      "uri": "scene.bin"
    }
  ],
  "materials": [
    {
      "doubleSided": true,
      "name": "Scene_-_Root",
      "pbrMetallicRoughness": {
        "baseColorFactor": [
          0.6114710365853658,
          0.3128154804903874,
          0.16296916682772425,
          1.0
        ],
        "metallicFactor": 0.0,
        "roughnessFactor": 0.5139100609756098
      }
    }
  ],
  "meshes": [
    {
      "name": "Plane.002_0",
      "primitives": [
        {
          "attributes": {
            "NORMAL": 1,
            "POSITION": 0,
            "TEXCOORD_0": 2
          },
          "indices": 3,
          "material": 0,
          "mode": 4
        }
      ]
    }
  ],
  "nodes": [
    {
      "children": [
        1
      ],
      "matrix": [
        1.0,
        0.0,
        0.0,
        0.0,
        0.0,
        2.220446049250313e-16,
        -1.0,
        0.0,
        0.0,
        1.0,
        2.220446049250313e-16,
        0.0,
        0.0,
        0.0,
        0.0,
        1.0
      ],
      "name": "Sketchfab_model"
    },
    {
      "children": [
        2
      ],
      "name": "Root"
    },
    {
      "children": [
        3
      ],
      "matrix": [
        0.25457,
        0.0,
        0.0,
        0.0,
        0.0,
        0.25457,
        0.0,
        0.0,
        0.0,
        0.0,
        0.25457,
        0.0,
        0.0,
        0.059850000000000014,
        0.58398,
        1.0
      ],
      "name": "Plane.002"
    },
    {
      "mesh": 0,
      "name": "Plane.002_0"
    }
  ],
  "scene": 0,
  "scenes": [
    {
      "name": "Sketchfab_Scene",
      "nodes": [
        0
      ]
    }
  ]
}
